Coordinates
version=1
nRows=11
nColumns=40
inDegrees=yes

Units are S.I. units (second, meters, Newtons, ...)
If the header above contains a line with 'inDegrees', this indicates whether rotational values are in degrees (yes) or radians (no).

endheader
time	pelvis_tilt	pelvis_list	pelvis_rotation	pelvis_tx	pelvis_ty	pelvis_tz	hip_flexion_r	hip_adduction_r	hip_rotation_r	knee_angle_r	knee_angle_r_beta	ankle_angle_r	subtalar_angle_r	mtp_angle_r	hip_flexion_l	hip_adduction_l	hip_rotation_l	knee_angle_l	knee_angle_l_beta	ankle_angle_l	subtalar_angle_l	mtp_angle_l	lumbar_extension	lumbar_bending	lumbar_rotation	arm_flex_r	arm_add_r	arm_rot_r	elbow_flex_r	pro_sup_r	wrist_flex_r	wrist_dev_r	arm_flex_l	arm_add_l	arm_rot_l	elbow_flex_l	pro_sup_l	wrist_flex_l	wrist_dev_l
      4.02500000	      3.95615174	      3.51202916	     -2.75719425	     -0.45373310	      0.90216632	     -0.74411706	     40.03311979	     -2.91944858	     -7.38804202	     73.78526084	      1.28779574	     18.31722225	      0.00000000	      0.00000000	     55.89090298	     -3.68415183	     -5.05271623	     10.95458433	      0.19119356	    -10.38622751	      0.00000000	      0.00000000	    -23.28832222	      1.93239320	      8.01462581	     89.96446625	    -17.51849540	     16.91996286	     44.30552761	     77.59760583	      0.00000000	      0.00000000	     89.95958884	     -9.97717594	     16.73487813	     42.66781271	     80.78665682	      0.00000000	      0.00000000
      4.03000000	      3.95510097	      3.52417979	     -2.80875530	     -0.45348990	      0.90363461	     -0.74398154	     39.87416287	     -2.89637125	     -7.38256982	     73.49565306	      1.28274113	     18.19314715	      0.00000000	      0.00000000	     55.81151327	     -3.71492295	     -5.09444275	     10.94850678	      0.19108749	    -10.39742179	      0.00000000	      0.00000000	    -23.25198672	      1.90493310	      8.04635935	     89.96437172	    -17.49663193	     16.98155012	     44.24727333	     77.60891639	      0.00000000	      0.00000000	     89.95961556	     -9.97724373	     16.73401119	     42.67712755	     80.78474339	      0.00000000	      0.00000000
      4.03500000	      3.94518180	      3.53880116	     -2.81563980	     -0.45333174	      0.90509098	     -0.74396794	     39.71174012	     -2.89296091	     -7.36610137	     73.16515125	      1.27697279	     18.05398892	      0.00000000	      0.00000000	     55.75805876	     -3.70571053	     -5.12986331	     10.94916316	      0.19109895	    -10.41213312	      0.00000000	      0.00000000	    -23.19286828	      1.88404256	      8.03372864	     89.96434864	    -17.49731472	     17.01610822	     44.18580751	     77.62013253	      0.00000000	      0.00000000	     89.95955934	     -9.97820648	     16.74560898	     42.65995242	     80.78132496	      0.00000000	      0.00000000
      4.04000000	      3.97248329	      3.56165135	     -2.84907957	     -0.45309008	      0.90676416	     -0.74387346	     39.49683486	     -2.88599532	     -7.34818294	     72.83653270	      1.27123731	     17.90810195	      0.00000000	      0.00000000	     55.66332684	     -3.70880173	     -5.14500253	     10.97500698	      0.19155001	    -10.45439878	      0.00000000	      0.00000000	    -23.18334919	      1.85556982	      8.03285275	     89.96424432	    -17.47543708	     17.07273537	     44.15147394	     77.63269533	      0.00000000	      0.00000000	     89.95952776	     -9.98796148	     16.76762968	     42.62586624	     80.78059478	      0.00000000	      0.00000000
      4.04500000	      3.96317715	      3.57287298	     -2.88110844	     -0.45289837	      0.90818963	     -0.74381127	     39.35135757	     -2.87264004	     -7.33729299	     72.54497422	      1.26614866	     17.78949294	      0.00000000	      0.00000000	     55.60329644	     -3.71794517	     -5.17130277	     10.97397020	      0.19153191	    -10.49037570	      0.00000000	      0.00000000	    -23.12729324	      1.82746936	      8.03602644	     89.96420254	    -17.46074378	     17.11977038	     44.07783078	     77.64338240	      0.00000000	      0.00000000	     89.95945163	     -9.98390136	     16.77116355	     42.62339595	     80.77816916	      0.00000000	      0.00000000
      4.05000000	      4.00991400	      3.59171902	     -2.86092511	     -0.45268214	      0.90989732	     -0.74378000	     39.10896626	     -2.88711856	     -7.33243701	     72.19449205	      1.26003159	     17.62577641	      0.00000000	      0.00000000	     55.48112853	     -3.67659425	     -5.19639831	     10.98251427	      0.19168103	    -10.53847511	      0.00000000	      0.00000000	    -23.13493750	      1.81742494	      8.00210443	     89.96412268	    -17.45386374	     17.18604552	     44.00358392	     77.65663674	      0.00000000	      0.00000000	     89.95943730	     -9.98934385	     16.78706708	     42.61603706	     80.77405150	      0.00000000	      0.00000000
      4.05500000	      3.99521607	      3.61719691	     -2.88246020	     -0.45240736	      0.91143164	     -0.74371767	     38.95969955	     -2.91096265	     -7.35155437	     71.90452735	      1.25497075	     17.50260664	      0.00000000	      0.00000000	     55.41958020	     -3.66976815	     -5.20788001	     10.97548701	      0.19155839	    -10.57538953	      0.00000000	      0.00000000	    -23.08040835	      1.78451391	      8.00039109	     89.96408972	    -17.45602404	     17.22655654	     43.97597506	     77.66767531	      0.00000000	      0.00000000	     89.95937312	     -9.98982456	     16.80268217	     42.59825277	     80.77337098	      0.00000000	      0.00000000
      4.06000000	      4.04042997	      3.63543377	     -2.83869649	     -0.45217463	      0.91309628	     -0.74370205	     38.71515540	     -2.93499840	     -7.35397728	     71.55582035	      1.24888466	     17.34146581	      0.00000000	      0.00000000	     55.29945442	     -3.61121247	     -5.20672124	     10.97262368	      0.19150841	    -10.62399723	      0.00000000	      0.00000000	    -23.07230868	      1.77431448	      7.94005236	     89.96397860	    -17.45130819	     17.28601243	     43.89943513	     77.68293825	      0.00000000	      0.00000000	     89.95931093	     -9.96648574	     16.79939516	     42.56947883	     80.77207914	      0.00000000	      0.00000000
      4.06500000	      4.04470539	      3.66198955	     -2.83009837	     -0.45192424	      0.91469149	     -0.74364615	     38.52913673	     -2.97398069	     -7.38449147	     71.24557855	      1.24346992	     17.20178157	      0.00000000	      0.00000000	     55.20625924	     -3.57492196	     -5.18226115	     10.94861871	      0.19108945	    -10.64685110	      0.00000000	      0.00000000	    -23.03891808	      1.75498083	      7.90351106	     89.96392855	    -17.44723346	     17.34946183	     43.87117532	     77.69921044	      0.00000000	      0.00000000	     89.95928234	     -9.98537207	     16.80681861	     42.56769885	     80.76970788	      0.00000000	      0.00000000
      4.07000000	      4.08952559	      3.70148779	     -2.79828334	     -0.45165890	      0.91642989	     -0.74360558	     38.28204773	     -3.03715213	     -7.42453040	     70.89296697	      1.23731569	     17.04196703	      0.00000000	      0.00000000	     55.08583887	     -3.51013139	     -5.12813628	     10.96153669	      0.19131491	    -10.68345285	      0.00000000	      0.00000000	    -23.03687629	      1.71610251	      7.85567747	     89.96384371	    -17.45266789	     17.41234631	     43.79582216	     77.71573080	      0.00000000	      0.00000000	     89.95917888	     -9.97199859	     16.82782152	     42.54294063	     80.76969622	      0.00000000	      0.00000000
      4.07500000	      4.08475084	      3.73933603	     -2.79064330	     -0.45143678	      0.91796788	     -0.74361655	     38.12317030	     -3.10106889	     -7.46383321	     70.60161199	      1.23223059	     16.90610201	      0.00000000	      0.00000000	     55.00805571	     -3.46477626	     -5.07270223	     10.93858033	      0.19091424	    -10.70618253	      0.00000000	      0.00000000	    -22.98091083	      1.68470740	      7.81479162	     89.96374164	    -17.44239637	     17.45846931	     43.75699259	     77.72675683	      0.00000000	      0.00000000	     89.95906676	     -9.98944806	     16.84570806	     42.52326131	     80.76874100	      0.00000000	      0.00000000
